<?xml version="1.0" encoding="utf-8"?>
<!-- Generator: Adobe Illustrator 25.2.0, SVG Export Plug-In . SVG Version: 6.00 Build 0)  -->
<svg version="1.1" id="Capa_1" xmlns="http://www.w3.org/2000/svg" xmlns:xlink="http://www.w3.org/1999/xlink" x="0px" y="0px"
	 viewBox="0 0 600 600" style="enable-background:new 0 0 600 600;" xml:space="preserve">
<style type="text/css">
	.st0{fill:#E2001A;}
	.st1{fill:#005CA9;}
	.st2{fill:#F5F6F7;}
</style>
<g>
	<g>
		<path class="st0" d="M576.14,299.36c-4.36-14-19.51-23.4-34.11-23.46c-10.14-0.04-20.29,0-30.43-0.04
			c-5.7-0.02-8.14-2.19-7.05-8.51c1.37-7.88,10.69-193.07,11.24-210.86c0.12-3.72,1.9-20.81-1.79-28.65
			C507.7,14.42,496.31,8.63,481.2,8.7c-60.16,0.28-120.32,0.12-180.47,0.1c-61.56-0.01-123.11-0.04-184.67,0.01
			c-15.44,0.01-27.84,10.61-31.68,25.39c-2.04,7.86-0.14,15.23,0.19,22.84c1.14,25.62,9.88,197.48,10.69,212.82
			c0.25,4.69-2.23,5.91-5.97,5.96c-8.74,0.12-17.49,0.25-26.23,0.02c-7.1-0.18-13.66,0.94-20.33,3.77
			c-18.47,7.82-27.57,36.24-16.08,52.65c9.67,13.83,174.19,175.79,243.27,246.17c17.27,17.59,44.18,16.66,60.48,0.12
			c78.9-80.09,157.79-159.1,237.82-239.17C579.75,327.84,580.13,312.18,576.14,299.36z"/>
	</g>
	<circle class="st1" cx="503.27" cy="169.09" r="71.9"/>
	<g>
		<path class="st2" d="M459.89,149.2c0-12.44,7.59-20.35,18.34-20.35c10.75,0,18.24,7.8,18.24,20.35c0,12.55-7.48,20.35-18.24,20.35
			C467.48,169.54,459.89,161.64,459.89,149.2z M485.93,149.2c0-7.91-3.06-11.7-7.7-11.7c-4.53,0-7.7,3.9-7.7,11.7
			c0,7.8,3.16,11.7,7.7,11.7C482.87,160.9,485.93,157.1,485.93,149.2z M522.19,129.69h12.54l-50.39,73.79H471.8L522.19,129.69z
			 M510.07,183.99c0-12.44,7.59-20.35,18.24-20.35c10.75,0,18.34,7.91,18.34,20.35c0,12.44-7.59,20.35-18.34,20.35
			C517.66,204.33,510.07,196.43,510.07,183.99z M536,183.99c0-7.8-3.06-11.7-7.7-11.7c-4.53,0-7.7,3.8-7.7,11.7
			c0,7.91,3.16,11.7,7.7,11.7C532.95,195.69,536,191.79,536,183.99z"/>
	</g>
</g>
</svg>
